<?xml version="1.0" encoding="UTF-8"?>
<svg xmlns="http://www.w3.org/2000/svg" xmlns:xlink="http://www.w3.org/1999/xlink" width="28px" height="28px" viewBox="0 0 28 28" version="1.1">
<g id="surface1">
<path style=" stroke:none;fill-rule:nonzero;fill:rgb(85.490196%,14.509804%,11.372549%);fill-opacity:1;" d="M 24.890625 3.890625 L 3.109375 3.890625 C 1.394531 3.890625 0 5.28125 0 7 L 0 21 C 0 22.71875 1.394531 24.109375 3.109375 24.109375 L 24.890625 24.109375 C 26.605469 24.109375 28 22.71875 28 21 L 28 7 C 28 5.28125 26.605469 3.890625 24.890625 3.890625 Z M 24.890625 3.890625 "/>
<path style=" stroke:none;fill-rule:nonzero;fill:rgb(100%,100%,0%);fill-opacity:1;" d="M 15.363281 12.472656 L 14 8.277344 L 12.636719 12.472656 L 8.226562 12.472656 L 11.792969 15.066406 L 10.429688 19.261719 L 14 16.667969 L 17.570312 19.261719 L 16.207031 15.066406 L 19.773438 12.472656 Z M 15.363281 12.472656 "/>
</g>
</svg>
