<?xml version="1.0" encoding="UTF-8"?>
<svg xmlns="http://www.w3.org/2000/svg" xmlns:xlink="http://www.w3.org/1999/xlink" width="26px" height="24px" viewBox="0 0 25 24" version="1.1">
<g id="surface1">
<path style=" stroke:none;fill-rule:nonzero;fill:rgb(64.705882%,0%,39.215686%);fill-opacity:1;" d="M 1.640625 -1.539062 L 23.714844 -1.539062 C 25.757812 -1.539062 27.417969 0.175781 27.417969 2.292969 L 27.417969 22.265625 C 27.417969 24.382812 25.757812 26.097656 23.714844 26.097656 L 1.640625 26.097656 C -0.40625 26.097656 -2.0625 24.382812 -2.0625 22.265625 L -2.0625 2.292969 C -2.0625 0.175781 -0.40625 -1.539062 1.640625 -1.539062 Z M 1.640625 -1.539062 "/>
<path style=" stroke:none;fill-rule:nonzero;fill:rgb(100%,100%,100%);fill-opacity:1;" d="M 19.738281 0.707031 C 16.839844 0.707031 14.484375 3.046875 14.484375 5.925781 C 14.484375 8.808594 16.84375 11.144531 19.738281 11.144531 C 22.636719 11.144531 25 8.808594 25 5.925781 C 25 3.046875 22.648438 0.707031 19.738281 0.707031 Z M 19.738281 8.152344 C 18.53125 8.175781 17.53125 7.179688 17.507812 5.929688 C 17.570312 4.699219 18.550781 3.738281 19.738281 3.738281 C 20.929688 3.738281 21.910156 4.699219 21.972656 5.929688 C 21.949219 7.179688 20.949219 8.175781 19.738281 8.152344 Z M 12.984375 4.628906 L 12.984375 11.167969 L 9.949219 11.167969 L 9.949219 4.59375 C 9.949219 4.085938 9.550781 3.675781 9.058594 3.675781 C 8.566406 3.675781 8.167969 4.085938 8.167969 4.59375 L 8.167969 11.167969 L 5.148438 11.167969 L 5.148438 4.59375 C 5.148438 4.085938 4.75 3.675781 4.257812 3.675781 C 3.765625 3.675781 3.367188 4.085938 3.367188 4.59375 L 3.367188 11.167969 L 0.355469 11.167969 L 0.355469 4.628906 C 0.402344 2.417969 2.164062 0.667969 4.300781 0.707031 C 5.148438 0.707031 5.976562 0.980469 6.664062 1.496094 C 7.351562 0.980469 8.179688 0.707031 9.027344 0.707031 C 11.164062 0.660156 12.933594 2.414062 12.984375 4.628906 Z M 19.738281 13.390625 C 16.839844 13.390625 14.484375 15.726562 14.484375 18.609375 C 14.484375 21.496094 16.84375 23.839844 19.738281 23.839844 C 22.636719 23.839844 24.992188 21.503906 24.992188 18.625 C 24.992188 15.742188 22.648438 13.390625 19.738281 13.390625 Z M 19.738281 20.835938 C 18.566406 20.789062 17.644531 19.773438 17.675781 18.558594 C 17.703125 17.34375 18.671875 16.375 19.847656 16.390625 C 21.023438 16.40625 21.972656 17.398438 21.972656 18.613281 C 21.964844 19.21875 21.722656 19.792969 21.304688 20.210938 C 20.886719 20.632812 20.324219 20.859375 19.738281 20.851562 Z M 12.984375 17.324219 L 12.984375 23.851562 L 9.949219 23.851562 L 9.949219 17.289062 C 9.949219 16.78125 9.550781 16.367188 9.058594 16.367188 C 8.566406 16.367188 8.167969 16.78125 8.167969 17.289062 L 8.167969 23.851562 L 5.148438 23.851562 L 5.148438 17.289062 C 5.148438 16.78125 4.75 16.367188 4.257812 16.367188 C 3.765625 16.367188 3.367188 16.78125 3.367188 17.289062 L 3.367188 23.851562 L 0.355469 23.851562 L 0.355469 17.324219 C 0.371094 16.261719 0.800781 15.25 1.539062 14.511719 C 2.277344 13.773438 3.273438 13.371094 4.300781 13.390625 C 5.148438 13.390625 5.976562 13.664062 6.664062 14.175781 C 7.351562 13.664062 8.179688 13.390625 9.027344 13.390625 C 10.054688 13.367188 11.050781 13.769531 11.792969 14.507812 C 12.535156 15.246094 12.964844 16.257812 12.984375 17.324219 Z M 12.984375 17.324219 "/>
</g>
</svg>
